<svg id="Layer_1" data-name="Layer 1" xmlns="http://www.w3.org/2000/svg" viewBox="0 0 100 29.82"><defs><style>.cls-1{fill:#fff;}</style></defs><title>logo</title><path class="cls-1" d="M83.12,58.34H78.67v-11a2.67,2.67,0,0,0-.94-2.27,3.38,3.38,0,0,0-2.1-.71,3.25,3.25,0,0,0-2.07.71,2.71,2.71,0,0,0-.9,2.27v11H68.14V48.24q0-4.4,2.29-5.89a10,10,0,0,1,5.07-1.62,13.07,13.07,0,0,1,2.91.32A6.11,6.11,0,0,1,81,42.35a5.7,5.7,0,0,1,2.29-1.2A12.84,12.84,0,0,1,86,40.73a9.7,9.7,0,0,1,5.23,1.49q2.39,1.49,2.39,6v10.1H91.39a2.11,2.11,0,0,1-2.2-2.2V47.33a2.67,2.67,0,0,0-.94-2.27,3.45,3.45,0,0,0-4.2,0,2.67,2.67,0,0,0-.94,2.27v11Z" transform="translate(-68.14 -31.91)"/><path class="cls-1" d="M94.94,41.12h2.33a2.21,2.21,0,0,1,2.2,2.2v15H94.94V41.12Z" transform="translate(-68.14 -31.91)"/><path class="cls-1" d="M122.26,58.34V50a10.68,10.68,0,0,1,.74-4.24A7,7,0,0,1,125,43a8,8,0,0,1,2.88-1.42,12.74,12.74,0,0,1,3.39-.45H132v4.6h-1.49a3.78,3.78,0,0,0-2.78.91,3.9,3.9,0,0,0-.9,2.85v8.87h-4.52Z" transform="translate(-68.14 -31.91)"/><path class="cls-1" d="M136.62,41.76a2.11,2.11,0,0,0-1.55-.65h-2.33V58.34h4.52v-15A2.13,2.13,0,0,0,136.62,41.76Z" transform="translate(-68.14 -31.91)"/><path class="cls-1" d="M147.77,58.34h-4.59l-6-17.23H142l3.42,12.11,3-10.56a2,2,0,0,1,2.07-1.55h3.36Z" transform="translate(-68.14 -31.91)"/><path class="cls-1" d="M164.65,53h3.23a7.07,7.07,0,0,1-2.71,4.15,8.21,8.21,0,0,1-5,1.49,7.19,7.19,0,0,1-5.75-2.4q-2.07-2.33-2.07-6.67a9.63,9.63,0,0,1,2-6.48,7.19,7.19,0,0,1,5.75-2.4,7.73,7.73,0,0,1,6,2.33,9.89,9.89,0,0,1,2.07,6.67v0.71a1.13,1.13,0,0,1-.06.45H156.9a4.46,4.46,0,0,0,1,3,3,3,0,0,0,2.52,1,3.65,3.65,0,0,0,1.87-.45,0.91,0.91,0,0,0,.36-0.23l0.35-.36a1.4,1.4,0,0,1,.48-0.52A1.92,1.92,0,0,1,164.65,53ZM156.9,48h6.59a4.21,4.21,0,0,0-.9-2.59,3.1,3.1,0,0,0-2.39-.91,3.14,3.14,0,0,0-2.33.91A3.72,3.72,0,0,0,156.9,48Z" transform="translate(-68.14 -31.91)"/><path class="cls-1" d="M121.58,50.21l-0.06-18.31-5.19,3.23h1.22v0.05a2.26,2.26,0,0,1,1.79,2.21V50.68s0,0.08,0,.12,0,0.16,0,.25a8.51,8.51,0,1,1-4.53-7.52V36.08l-9.11,5.67A10.67,10.67,0,1,0,121.61,51C121.61,50.74,121.6,50.47,121.58,50.21Z" transform="translate(-68.14 -31.91)"/><circle class="cls-1" cx="42.7" cy="19.3" r="4.02"/></svg>
